<?xml version="1.0" encoding="UTF-8" standalone="no"?>
<!-- Created with Inkscape (http://www.inkscape.org/) -->

<svg
   xmlns:dc="http://purl.org/dc/elements/1.1/"
   xmlns:cc="http://creativecommons.org/ns#"
   xmlns:rdf="http://www.w3.org/1999/02/22-rdf-syntax-ns#"
   xmlns:svg="http://www.w3.org/2000/svg"
   xmlns="http://www.w3.org/2000/svg"
   xmlns:sodipodi="http://sodipodi.sourceforge.net/DTD/sodipodi-0.dtd"
   xmlns:inkscape="http://www.inkscape.org/namespaces/inkscape"
   width="744.09448819"
   height="1052.3622047"
   id="svg30571"
   version="1.1"
   inkscape:version="0.48.4 r9939"
   sodipodi:docname="main-bg-objects.svg">
  <defs
     id="defs30573">
    <clipPath
       clipPathUnits="userSpaceOnUse"
       id="clipPath28933-7">
      <path
         inkscape:connector-curvature="0"
         id="path28935-9"
         d="m 602.10401,51.792637 -1.09375,6.65625 -0.65625,0.375 -0.15625,0.0937 -3.90625,-2.78125 -2.40625,3.40625 -2.25,3.15625 -2.1875,-0.15625 -3.84375,1.34375 -4.15625,1.4375 2.78125,8.0625 -9.53125,0.96875 0.53125,5.21875 -7.625,2.46875 1.28125,3.9375 1.03125,3.1875 -0.4375,0.46875 -3.03125,3.1875 -1.96875,0.625 -4.28125,1.375 0.78125,2.4375 -2.78125,0.90625 0.0312,0.125 -3.5625,0.875 -4.0625,1.031253 1.0625,4.28125 -0.6875,0.65625 -3.6875,3.375 3.4375,3.75 -0.21875,0.1875 0.34375,0.4375 -1,1.75 -3.53125,6.0625 1.03125,6.9375 0.59375,3.96875 8.4375,-1.25 -2,7.5625 3.59375,0.96875 -0.71875,0.90625 2.46875,2 -0.25,0.0312 -10.40625,-4.4375 -1.6875,3.90625 -2.25,5.25 0.875,5.65625 0.90625,6.03125 1.03125,6.71875 1.5625,1.46875 -0.3125,0.34375 -4.46875,4.90625 -0.65625,6.5625 -0.53125,5.5625 -0.71875,7.0625 3.90625,5.9375 2.25,3.4375 2.8125,-1.84375 0.21875,1.1875 9.15625,-1.625 0.625,1.78125 1.125,-0.40625 0.40625,1.6875 5.5,-1.375 1.1875,-0.3125 0.84375,7.9375 4.25,-0.4375 2.5,4.0625 1.5625,-0.96875 2.1875,3.4375 6.9375,2.1875 5.59375,1.75 3.53125,1.09375 1.375,4 2.46875,-0.84375 3.46875,7.59375 4.78125,-2.1875 3.75,-1.65625 2.75,-3.0625 4.28125,-4.6875 3.90625,-4.3125 0.3125,-1.8125 2.46875,-0.4375 4.09375,3.1875 -0.125,-5.4375 0.46875,0.15625 1.15625,0.59375 -0.0625,-0.25 0.28125,0.0937 0.1875,-0.5625 1.875,2.28125 0.53125,1.25 1.40625,3.3125 1.15625,1.1875 1.875,7.21875 4.25,-1.09375 5.5,-1.4375 3.03125,3.09375 6.375,1.125 4.875,0.84375 1.125,-6.375 0.75,0.375 4.5625,2.28125 5.21875,2.65625 5.84375,-0.5625 4.0625,-0.40625 -1.09375,-11.28125 0.59375,-0.875 2.1875,-3.15625 0.4375,0.375 2.0625,2.875 0.71875,-0.53125 3.875,3.21875 3.53125,5.78125 1.96875,-1.15625 3.75,3.125 2.96875,-3.5625 3.71875,-4.46875 0.78125,-5.78125 0.0312,-0.25 5.34375,4.09375 2.78125,-3.625 2.625,-3.40625 5.1875,3.46875 5.4375,8.09375 3.34375,-2.21875 3.5625,2.375 2.25,-3.375 2.9375,-4.4375 0,0.28125 1.34375,3.8125 1.40625,4 6.78125,-2.40625 -0.59375,7.9375 4,0.3125 4.0625,0.28125 1.28125,-0.4375 2.96875,3.09375 4.84375,5.125 7,0.9375 4.4375,0.59375 0.5,-3.65625 2,4.1875 4.0625,2.96875 3.96875,2.875 6.1875,-8.46875 0.0312,0 4.15625,-0.125 -0.0937,-3.28125 0.71875,0.25 0.5625,0.21875 0.0937,0.125 0.0937,-0.0625 3.8125,1.375 4.3125,-0.5625 0.84375,0.4375 0.28125,-0.59375 3.78125,-0.46875 -0.15625,-1.1875 2.46875,0.3125 0.5625,-4.59375 0.71875,-5.8125 -1.3125,-2.75 1.03125,-0.59375 -0.78125,-1.34375 2.625,-3.59375 -0.1875,-4.25 3.28125,-0.96875 -1.5,-5 7,-3.875 -2,-3.625 -1.59375,-2.9375 0.3125,-0.53125 2.375,-3.71875 1.8125,-0.96875 3.96875,-2.1875 -1.78125,-3.25 1.6875,0.125 4.6875,-2.15625 3.8125,-1.78125 -1.875,-4.03125 0.5625,-0.75 3,-4.03125 -4.09375,-3.03125 0.1875,-0.21875 -0.4375,-0.375 0.21875,-0.625 2.5,-1.875 1.875,-6.34375 1.59375,-5.34375 2.03125,-6.8125 -2.71875,-6.5625 -1.5625,-3.8125 -5.78125,2.40625 1.09375,-5.15625 -1.90625,-5.375 -2.03125,-5.75 -2.28125,-6.40625 -5.71875,-3.6875 -5.34375,-3.46875 1.15625,-3.906253 1.5,-5 1.96875,-6.53125 -2.4375,-6.34375 -1.65625,-4.3125 -8.6875,3.34375 -0.9375,-1.625 -5.28125,3.0625 -1.40625,0.0312 -0.8125,0.0312 -0.21875,-0.25 -2.625,-8.5625 -4.09375,1.21875 -3.21875,-3.5 -3.25,2.96875 -0.59375,0.5625 -3.90625,-0.71875 -5.03125,1.71875 -5.15625,1.84375 -2.375,0.78125 -2.84375,-6.96875 -4.09375,1.65625 -6.125,2.5 -3.4375,5.625 -3.3125,5.46875 -2.0625,3.34375 -0.15625,0.90625 -3.71875,0.25 -2.375,-3.625 -6.0625,-2.3125 -4.625,-1.75 -2.3125,6.0625 -0.65625,-0.5 -4.03125,-3.125 -4.625,-3.59375 -5.84375,-0.53125 -4.09375,-0.375 -1.03125,11.28125 -0.75,0.75 -2.75,2.6875 -0.375,-0.46875 -1.46875,-3.1875 -0.8125,0.375 -3.1875,-3.90625 -2.375,-6.34375 -2.15625,0.78125 -3.09375,-3.78125 -3.59375,2.9375 -4.5,3.6875 -1.84375,5.53125 -0.0937,0.25 -4.46875,-5.03125 -3.40625,3.03125 -3.21875,2.84375 -4.4375,-4.375 -3.8125,-9 -3.71875,1.5625 -3.03125,-3 -2.84375,2.875 -3.75,3.8125 0.0625,-0.28125 -0.59375,-4 -0.625,-4.1875 -7.125,1.0625 2.09375,-7.65625 -3.875,-1.0625 -3.9375,-1.0625 -1.34375,0.1875 -2.3125,-3.59375 -3.8125,-5.9375 -6.6875,-2.25 -4.25,-1.40625 -2.6875,8.0625 -2.5,-2.78125 -4.6875,-5.25 -6.96875,-1.15625 -4.09375,-0.65625 z"
         style="font-size:medium;font-style:normal;font-variant:normal;font-weight:normal;font-stretch:normal;text-indent:0;text-align:start;text-decoration:none;line-height:normal;letter-spacing:normal;word-spacing:normal;text-transform:none;direction:ltr;block-progression:tb;writing-mode:lr-tb;text-anchor:start;baseline-shift:baseline;opacity:0.5;color:#000000;fill:#000000;fill-opacity:1;stroke:none;stroke-width:40;marker:none;visibility:visible;display:inline;overflow:visible;enable-background:accumulate;font-family:Sans;-inkscape-font-specification:Sans" />
    </clipPath>
    <clipPath
       clipPathUnits="userSpaceOnUse"
       id="clipPath30591">
      <path
         inkscape:connector-curvature="0"
         id="path30593"
         d="m 602.10401,51.792637 -1.09375,6.65625 -0.65625,0.375 -0.15625,0.0937 -3.90625,-2.78125 -2.40625,3.40625 -2.25,3.15625 -2.1875,-0.15625 -3.84375,1.34375 -4.15625,1.4375 2.78125,8.0625 -9.53125,0.96875 0.53125,5.21875 -7.625,2.46875 1.28125,3.9375 1.03125,3.1875 -0.4375,0.46875 -3.03125,3.1875 -1.96875,0.625 -4.28125,1.375 0.78125,2.4375 -2.78125,0.90625 0.0312,0.125 -3.5625,0.875 -4.0625,1.031253 1.0625,4.28125 -0.6875,0.65625 -3.6875,3.375 3.4375,3.75 -0.21875,0.1875 0.34375,0.4375 -1,1.75 -3.53125,6.0625 1.03125,6.9375 0.59375,3.96875 8.4375,-1.25 -2,7.5625 3.59375,0.96875 -0.71875,0.90625 2.46875,2 -0.25,0.0312 -10.40625,-4.4375 -1.6875,3.90625 -2.25,5.25 0.875,5.65625 0.90625,6.03125 1.03125,6.71875 1.5625,1.46875 -0.3125,0.34375 -4.46875,4.90625 -0.65625,6.5625 -0.53125,5.5625 -0.71875,7.0625 3.90625,5.9375 2.25,3.4375 2.8125,-1.84375 0.21875,1.1875 9.15625,-1.625 0.625,1.78125 1.125,-0.40625 0.40625,1.6875 5.5,-1.375 1.1875,-0.3125 0.84375,7.9375 4.25,-0.4375 2.5,4.0625 1.5625,-0.96875 2.1875,3.4375 6.9375,2.1875 5.59375,1.75 3.53125,1.09375 1.375,4 2.46875,-0.84375 3.46875,7.59375 4.78125,-2.1875 3.75,-1.65625 2.75,-3.0625 4.28125,-4.6875 3.90625,-4.3125 0.3125,-1.8125 2.46875,-0.4375 4.09375,3.1875 -0.125,-5.4375 0.46875,0.15625 1.15625,0.59375 -0.0625,-0.25 0.28125,0.0937 0.1875,-0.5625 1.875,2.28125 0.53125,1.25 1.40625,3.3125 1.15625,1.1875 1.875,7.21875 4.25,-1.09375 5.5,-1.4375 3.03125,3.09375 6.375,1.125 4.875,0.84375 1.125,-6.375 0.75,0.375 4.5625,2.28125 5.21875,2.65625 5.84375,-0.5625 4.0625,-0.40625 -1.09375,-11.28125 0.59375,-0.875 2.1875,-3.15625 0.4375,0.375 2.0625,2.875 0.71875,-0.53125 3.875,3.21875 3.53125,5.78125 1.96875,-1.15625 3.75,3.125 2.96875,-3.5625 3.71875,-4.46875 0.78125,-5.78125 0.0312,-0.25 5.34375,4.09375 2.78125,-3.625 2.625,-3.40625 5.1875,3.46875 5.4375,8.09375 3.34375,-2.21875 3.5625,2.375 2.25,-3.375 2.9375,-4.4375 0,0.28125 1.34375,3.8125 1.40625,4 6.78125,-2.40625 -0.59375,7.9375 4,0.3125 4.0625,0.28125 1.28125,-0.4375 2.96875,3.09375 4.84375,5.125 7,0.9375 4.4375,0.59375 0.5,-3.65625 2,4.1875 4.0625,2.96875 3.96875,2.875 6.1875,-8.46875 0.0312,0 4.15625,-0.125 -0.0937,-3.28125 0.71875,0.25 0.5625,0.21875 0.0937,0.125 0.0937,-0.0625 3.8125,1.375 4.3125,-0.5625 0.84375,0.4375 0.28125,-0.59375 3.78125,-0.46875 -0.15625,-1.1875 2.46875,0.3125 0.5625,-4.59375 0.71875,-5.8125 -1.3125,-2.75 1.03125,-0.59375 -0.78125,-1.34375 2.625,-3.59375 -0.1875,-4.25 3.28125,-0.96875 -1.5,-5 7,-3.875 -2,-3.625 -1.59375,-2.9375 0.3125,-0.53125 2.375,-3.71875 1.8125,-0.96875 3.96875,-2.1875 -1.78125,-3.25 1.6875,0.125 4.6875,-2.15625 3.8125,-1.78125 -1.875,-4.03125 0.5625,-0.75 3,-4.03125 -4.09375,-3.03125 0.1875,-0.21875 -0.4375,-0.375 0.21875,-0.625 2.5,-1.875 1.875,-6.34375 1.59375,-5.34375 2.03125,-6.8125 -2.71875,-6.5625 -1.5625,-3.8125 -5.78125,2.40625 1.09375,-5.15625 -1.90625,-5.375 -2.03125,-5.75 -2.28125,-6.40625 -5.71875,-3.6875 -5.34375,-3.46875 1.15625,-3.906253 1.5,-5 1.96875,-6.53125 -2.4375,-6.34375 -1.65625,-4.3125 -8.6875,3.34375 -0.9375,-1.625 -5.28125,3.0625 -1.40625,0.0312 -0.8125,0.0312 -0.21875,-0.25 -2.625,-8.5625 -4.09375,1.21875 -3.21875,-3.5 -3.25,2.96875 -0.59375,0.5625 -3.90625,-0.71875 -5.03125,1.71875 -5.15625,1.84375 -2.375,0.78125 -2.84375,-6.96875 -4.09375,1.65625 -6.125,2.5 -3.4375,5.625 -3.3125,5.46875 -2.0625,3.34375 -0.15625,0.90625 -3.71875,0.25 -2.375,-3.625 -6.0625,-2.3125 -4.625,-1.75 -2.3125,6.0625 -0.65625,-0.5 -4.03125,-3.125 -4.625,-3.59375 -5.84375,-0.53125 -4.09375,-0.375 -1.03125,11.28125 -0.75,0.75 -2.75,2.6875 -0.375,-0.46875 -1.46875,-3.1875 -0.8125,0.375 -3.1875,-3.90625 -2.375,-6.34375 -2.15625,0.78125 -3.09375,-3.78125 -3.59375,2.9375 -4.5,3.6875 -1.84375,5.53125 -0.0937,0.25 -4.46875,-5.03125 -3.40625,3.03125 -3.21875,2.84375 -4.4375,-4.375 -3.8125,-9 -3.71875,1.5625 -3.03125,-3 -2.84375,2.875 -3.75,3.8125 0.0625,-0.28125 -0.59375,-4 -0.625,-4.1875 -7.125,1.0625 2.09375,-7.65625 -3.875,-1.0625 -3.9375,-1.0625 -1.34375,0.1875 -2.3125,-3.59375 -3.8125,-5.9375 -6.6875,-2.25 -4.25,-1.40625 -2.6875,8.0625 -2.5,-2.78125 -4.6875,-5.25 -6.96875,-1.15625 -4.09375,-0.65625 z"
         style="font-size:medium;font-style:normal;font-variant:normal;font-weight:normal;font-stretch:normal;text-indent:0;text-align:start;text-decoration:none;line-height:normal;letter-spacing:normal;word-spacing:normal;text-transform:none;direction:ltr;block-progression:tb;writing-mode:lr-tb;text-anchor:start;baseline-shift:baseline;opacity:0.5;color:#000000;fill:#000000;fill-opacity:1;stroke:none;stroke-width:40;marker:none;visibility:visible;display:inline;overflow:visible;enable-background:accumulate;font-family:Sans;-inkscape-font-specification:Sans" />
    </clipPath>
  </defs>
  <sodipodi:namedview
     id="base"
     pagecolor="#ffffff"
     bordercolor="#666666"
     borderopacity="1.0"
     inkscape:pageopacity="0.0"
     inkscape:pageshadow="2"
     inkscape:zoom="2.8"
     inkscape:cx="375.4061"
     inkscape:cy="230.01444"
     inkscape:document-units="px"
     inkscape:current-layer="layer2"
     showgrid="false"
     inkscape:window-width="1366"
     inkscape:window-height="744"
     inkscape:window-x="0"
     inkscape:window-y="24"
     inkscape:window-maximized="1" />
  <metadata
     id="metadata30576">
    <rdf:RDF>
      <cc:Work
         rdf:about="">
        <dc:format>image/svg+xml</dc:format>
        <dc:type
           rdf:resource="http://purl.org/dc/dcmitype/StillImage" />
        <dc:title></dc:title>
      </cc:Work>
    </rdf:RDF>
  </metadata>
  <g
     inkscape:groupmode="layer"
     id="layer2"
     inkscape:label="Selection"
     style="display:none">
    <rect
       style="fill:#e3dbdb;fill-opacity:1;fill-rule:nonzero;stroke:none"
       id="rect3008"
       width="183.34268"
       height="37.375645"
       x="346.4823"
       y="787.70221"
       inkscape:export-filename="/home/rsimoni/Development/projects/sixro/pooomodoro/assets/bird01.png"
       inkscape:export-xdpi="90"
       inkscape:export-ydpi="90" />
    <rect
       y="839.70221"
       x="346.4823"
       height="37.375645"
       width="183.34268"
       id="rect3030"
       style="fill:#e3dbdb;fill-opacity:1;fill-rule:nonzero;stroke:none"
       inkscape:export-filename="/home/rsimoni/Development/projects/sixro/pooomodoro/assets/bird02.png"
       inkscape:export-xdpi="90"
       inkscape:export-ydpi="90" />
    <rect
       style="fill:#e3dbdb;fill-opacity:1;fill-rule:nonzero;stroke:none"
       id="rect3032"
       width="183.34268"
       height="37.375645"
       x="346.4823"
       y="891.70221"
       inkscape:export-filename="/home/rsimoni/Development/projects/sixro/pooomodoro/assets/bird03.png"
       inkscape:export-xdpi="90"
       inkscape:export-ydpi="90" />
  </g>
  <g
     inkscape:label="Layer 1"
     inkscape:groupmode="layer"
     id="layer1">
    <path
       style="font-size:medium;font-style:normal;font-variant:normal;font-weight:normal;font-stretch:normal;text-indent:0;text-align:start;text-decoration:none;line-height:normal;letter-spacing:normal;word-spacing:normal;text-transform:none;direction:ltr;block-progression:tb;writing-mode:lr-tb;text-anchor:start;baseline-shift:baseline;color:#000000;fill:#007600;fill-opacity:1;stroke:none;stroke-width:40;marker:none;visibility:visible;display:inline;overflow:visible;enable-background:accumulate;font-family:Sans;-inkscape-font-specification:Sans"
       d="m 419.27131,341.63524 -1.07936,6.94251 -0.64762,0.39113 -0.15419,0.0977 -3.85484,-2.90086 -2.37459,3.55274 -2.22039,3.29199 -2.15871,-0.16297 -3.79316,1.40154 -4.10156,1.49932 2.74465,8.40924 -9.40581,1.01042 0.52425,5.44319 -7.52465,2.57492 1.26439,4.10684 1.01768,3.32458 -0.43174,0.48891 -2.99136,3.32458 -1.94285,0.65188 -4.2249,1.43414 0.77097,2.54233 -2.74465,0.94522 0.0308,0.13038 -3.51562,0.91263 -4.00904,1.0756 1.04852,4.46537 -0.67845,0.68447 -3.63897,3.52015 3.39226,3.91128 -0.21587,0.19556 0.33923,0.45632 -0.98684,1.82526 -3.48478,6.32322 1.01768,7.23586 0.58593,4.13944 8.32646,-1.30376 -1.97367,7.88773 3.54645,1.01042 -0.70929,0.94522 2.43626,2.08602 -0.24671,0.0325 -10.2693,-4.62834 -1.66529,4.07424 -2.22039,5.47579 0.86348,5.8995 0.89432,6.29064 1.01768,7.0077 1.54194,1.53191 -0.30838,0.35854 -4.40995,5.11725 -0.64761,6.84473 -0.52426,5.80172 -0.70929,7.36624 3.85484,6.19285 2.2204,3.58533 2.77548,-1.92304 0.21587,1.23857 9.03575,-1.69488 0.61678,1.85785 1.11019,-0.42372 0.40091,1.76007 5.42761,-1.43413 1.17187,-0.32594 0.83265,8.27886 4.19407,-0.45631 2.4671,4.23721 1.54194,-1.01041 2.15871,3.58534 6.8462,2.28157 5.52013,1.82526 3.48478,1.14079 1.35691,4.17203 2.43626,-0.88004 3.42309,7.92033 4.71834,-2.28157 3.70064,-1.72748 2.71381,-3.19421 4.22491,-4.88909 3.85484,-4.49797 0.30839,-1.89045 2.43626,-0.45631 4.03988,3.32458 -0.12336,-5.67135 0.46259,0.16297 1.14103,0.61929 -0.0616,-0.26076 0.27755,0.0977 0.18503,-0.58669 1.85032,2.37936 0.52426,1.30376 1.38774,3.45496 1.14104,1.23857 1.85032,7.5292 4.19408,-1.14079 5.42761,-1.49932 2.99136,3.2268 6.2911,1.17339 4.81084,0.88003 1.1102,-6.64916 0.74013,0.39112 4.50245,2.37936 5.15007,2.77049 5.76685,-0.58669 4.00904,-0.42372 -1.07935,-11.76642 0.58593,-0.91263 2.15871,-3.29199 0.43175,0.39113 2.03535,2.99864 0.70929,-0.5541 3.824,3.35718 3.48478,6.02988 1.94284,-1.20597 3.70065,3.25939 2.92969,-3.71571 3.6698,-4.66094 0.77097,-6.02988 0.0308,-0.26075 5.27342,4.26981 2.74465,-3.7809 2.59046,-3.55274 5.11923,3.61793 5.36594,8.44183 3.29974,-2.31417 3.51563,2.47714 2.22038,-3.52015 2.89884,-4.62834 0,0.29335 1.32607,3.97646 1.38775,4.17203 6.692,-2.50974 -0.58594,8.27887 3.94736,0.32594 4.00904,0.29334 1.26439,-0.45631 2.92967,3.2268 4.78001,5.34541 6.90788,0.97782 4.3791,0.61928 0.49342,-3.81349 1.97368,4.36759 4.00904,3.09643 3.91652,2.99864 6.10607,-8.83296 0.0308,0 4.10155,-0.13038 -0.0925,-3.42236 0.70929,0.26075 0.55509,0.22816 0.0924,0.13037 0.0925,-0.0652 3.76232,1.43414 4.25575,-0.58669 0.83265,0.45631 0.27755,-0.61928 3.73148,-0.48891 -0.15419,-1.23857 2.43626,0.32594 0.5551,-4.79132 0.70928,-6.06247 -1.29522,-2.86827 1.01768,-0.61928 -0.77097,-1.40155 2.59046,-3.7483 -0.18503,-4.43278 3.23806,-1.01041 -1.48026,-5.21503 6.90788,-4.04165 -1.97368,-3.7809 -1.57278,-3.06384 0.30839,-0.55409 2.34374,-3.87868 1.78865,-1.01042 3.91653,-2.28157 -1.75782,-3.38978 1.6653,0.13038 4.62581,-2.24898 3.76232,-1.85786 -1.85032,-4.20462 0.5551,-0.78225 2.96051,-4.20462 -4.03987,-3.16162 0.18503,-0.22816 -0.43174,-0.39112 0.21587,-0.65188 2.4671,-1.95564 1.85033,-6.61657 1.57277,-5.57357 2.00452,-7.10548 -2.68297,-6.84473 -1.54194,-3.97647 -5.70516,2.50974 1.07935,-5.378 -1.88116,-5.60617 -2.00452,-5.99728 -2.25123,-6.68177 -5.64349,-3.84608 -5.27342,-3.61793 1.14103,-4.07425 1.48026,-5.21503 1.94284,-6.81214 -2.40542,-6.61657 -1.63445,-4.49797 -8.57318,3.48756 -0.92515,-1.69489 -5.21176,3.19421 -1.38774,0.0325 -0.80181,0.0325 -0.21587,-0.26075 -2.59045,-8.93074 -4.03988,1.27116 -3.17639,-3.65052 -3.20722,3.09642 -0.58594,0.5867 -3.85484,-0.74967 -4.96504,1.79267 -5.08839,1.92305 -2.34375,0.81484 -2.80632,-7.26845 -4.03988,1.72748 -6.04439,2.60752 -3.39226,5.86691 -3.26891,5.70394 -2.03535,3.48756 -0.1542,0.94522 -3.66981,0.26075 -2.34374,-3.7809 -5.98272,-2.41195 -4.56414,-1.82526 -2.28207,6.32323 -0.6476,-0.52151 -3.9782,-3.25939 -4.56414,-3.74831 -5.76684,-0.55409 -4.03988,-0.39113 -1.01768,11.76642 -0.74012,0.78225 -2.71382,2.80308 -0.37006,-0.48891 -1.44942,-3.32458 -0.8018,0.39113 -3.14556,-4.07425 -2.34374,-6.61657 -2.12787,0.81485 -3.05305,-3.94387 -3.54645,3.06383 -4.44078,3.84609 -1.81949,5.76913 -0.0925,0.26075 -4.40994,-5.24763 -3.36142,3.16162 -3.17639,2.96605 -4.3791,-4.56316 -3.76233,-9.38706 -3.66981,1.6297 -2.99136,-3.12902 -2.80632,2.99865 -3.70065,3.97646 0.0616,-0.29335 -0.58593,-4.17202 -0.61677,-4.36759 -7.03124,1.10819 2.0662,-7.98552 -3.82401,-1.10819 -3.88568,-1.1082 -1.32606,0.19557 -2.28207,-3.74831 -3.76232,-6.19285 -6.5995,-2.34677 -4.19406,-1.46672 -2.65213,8.40924 -2.46711,-2.90087 -4.62581,-5.47578 -6.87703,-1.20598 -4.03989,-0.68447 z"
       id="path30397"
       inkscape:connector-curvature="0" />
    <path
       inkscape:connector-curvature="0"
       id="path30399"
       d="m 548.12411,496.86636 -36.4375,-17.5625 0.125,0.75 -4.4375,10.25 -5.875,-7.40625 -0.59375,-1.9375 -38.125,25.4375 8.59375,2.9375 21.21875,26.5 0,72.96875 40,0 0,-75.9375 15.53125,-36 z"
       style="font-size:medium;font-style:normal;font-variant:normal;font-weight:normal;font-stretch:normal;text-indent:0;text-align:start;text-decoration:none;line-height:normal;letter-spacing:normal;word-spacing:normal;text-transform:none;direction:ltr;block-progression:tb;writing-mode:lr-tb;text-anchor:start;baseline-shift:baseline;color:#000000;fill:#784421;fill-opacity:1;stroke:none;stroke-width:40;marker:none;visibility:visible;display:inline;overflow:visible;enable-background:accumulate;font-family:Sans;-inkscape-font-specification:Sans" />
    <path
       transform="translate(-177.54746,295.94412)"
       clip-path="url(#clipPath28933-7)"
       style="font-size:medium;font-style:normal;font-variant:normal;font-weight:normal;font-stretch:normal;text-indent:0;text-align:start;text-decoration:none;line-height:normal;letter-spacing:normal;word-spacing:normal;text-transform:none;direction:ltr;block-progression:tb;writing-mode:lr-tb;text-anchor:start;baseline-shift:baseline;color:#000000;fill:#502d16;fill-opacity:1;stroke:none;stroke-width:40;marker:none;visibility:visible;display:inline;overflow:visible;enable-background:accumulate;font-family:Sans;-inkscape-font-specification:Sans"
       d="m 730.17666,206.94255 -36.4375,-17.5625 0.125,0.75 -4.4375,10.25 -5.875,-7.40625 -0.59375,-1.9375 -38.125,25.4375 8.59375,2.9375 21.21875,26.5 0,72.96875 40,0 0,-75.9375 15.53125,-36 z"
       id="path30401"
       inkscape:connector-curvature="0" />
    <path
       inkscape:connector-curvature="0"
       id="path30403"
       d="m 420.05146,341.71645 -1.09375,6.65625 -0.65625,0.375 -0.15625,0.0937 -3.90625,-2.78125 -2.40625,3.40625 -2.25,3.15625 -2.1875,-0.15625 -3.84375,1.34375 -4.15625,1.4375 2.78125,8.0625 -9.53125,0.96875 0.53125,5.21875 -7.625,2.46875 1.28125,3.9375 1.03125,3.1875 -0.4375,0.46875 -3.03125,3.1875 -1.96875,0.625 -4.28125,1.375 0.78125,2.4375 -2.78125,0.90625 0.0312,0.125 -3.5625,0.875 -4.0625,1.03125 1.0625,4.28125 -0.6875,0.65625 -3.6875,3.375 3.4375,3.75 -0.21875,0.1875 0.34375,0.4375 -1,1.75 -3.53125,6.0625 1.03125,6.9375 0.59375,3.96875 8.4375,-1.25 -2,7.5625 3.59375,0.96875 -0.71875,0.90625 2.46875,2 -0.25,0.0312 -10.40625,-4.4375 -1.6875,3.90625 -2.25,5.25 0.875,5.65625 0.90625,6.03125 1.03125,6.71875 1.5625,1.46875 -0.3125,0.34375 -4.46875,4.90625 -0.65625,6.5625 -0.53125,5.5625 -0.71875,7.0625 3.90625,5.9375 2.25,3.4375 2.8125,-1.84375 0.21875,1.1875 9.15625,-1.625 0.625,1.78125 1.125,-0.40625 0.40625,1.6875 5.5,-1.375 1.1875,-0.3125 0.84375,7.9375 4.25,-0.4375 2.5,4.0625 1.5625,-0.96875 2.1875,3.4375 6.9375,2.1875 5.59375,1.75 3.53125,1.09375 1.375,4 2.46875,-0.84375 3.46875,7.59375 4.78125,-2.1875 3.75,-1.65625 2.75,-3.0625 4.28125,-4.6875 3.90625,-4.3125 0.3125,-1.8125 2.46875,-0.4375 4.09375,3.1875 -0.125,-5.4375 0.46875,0.15625 1.15625,0.59375 -0.0625,-0.25 0.28125,0.0937 0.1875,-0.5625 1.875,2.28125 0.53125,1.25 1.40625,3.3125 1.15625,1.1875 1.875,7.21875 4.25,-1.09375 5.5,-1.4375 3.03125,3.09375 6.375,1.125 4.875,0.84375 1.125,-6.375 0.75,0.375 4.5625,2.28125 5.21875,2.65625 5.84375,-0.5625 4.0625,-0.40625 -1.09375,-11.28125 0.59375,-0.875 2.1875,-3.15625 0.4375,0.375 2.0625,2.875 0.71875,-0.53125 3.875,3.21875 3.53125,5.78125 1.96875,-1.15625 3.75,3.125 2.96875,-3.5625 3.71875,-4.46875 0.78125,-5.78125 0.0312,-0.25 5.34375,4.09375 2.78125,-3.625 2.625,-3.40625 5.1875,3.46875 5.4375,8.09375 3.34375,-2.21875 3.5625,2.375 2.25,-3.375 2.9375,-4.4375 0,0.28125 1.34375,3.8125 1.40625,4 6.78125,-2.40625 -0.59375,7.9375 4,0.3125 4.0625,0.28125 1.28125,-0.4375 2.96875,3.09375 4.84375,5.125 7,0.9375 4.4375,0.59375 0.5,-3.65625 2,4.1875 4.0625,2.96875 3.96875,2.875 6.1875,-8.46875 0.0312,0 4.15625,-0.125 -0.0937,-3.28125 0.71875,0.25 0.5625,0.21875 0.0937,0.125 0.0937,-0.0625 3.8125,1.375 4.3125,-0.5625 0.84375,0.4375 0.28125,-0.59375 3.78125,-0.46875 -0.15625,-1.1875 2.46875,0.3125 0.5625,-4.59375 0.71875,-5.8125 -1.3125,-2.75 1.03125,-0.59375 -0.78125,-1.34375 2.625,-3.59375 -0.1875,-4.25 3.28125,-0.96875 -1.5,-5 7,-3.875 -2,-3.625 -1.59375,-2.9375 0.3125,-0.53125 2.375,-3.71875 1.8125,-0.96875 3.96875,-2.1875 -1.78125,-3.25 1.6875,0.125 4.6875,-2.15625 3.8125,-1.78125 -1.875,-4.03125 0.5625,-0.75 3,-4.03125 -4.09375,-3.03125 0.1875,-0.21875 -0.4375,-0.375 0.21875,-0.625 2.5,-1.875 1.875,-6.34375 1.59375,-5.34375 2.03125,-6.8125 -2.71875,-6.5625 -1.5625,-3.8125 -5.78125,2.40625 1.09375,-5.15625 -1.90625,-5.375 -2.03125,-5.75 -2.28125,-6.40625 -5.71875,-3.6875 -5.34375,-3.46875 1.15625,-3.90625 1.5,-5 1.96875,-6.53125 -2.4375,-6.34375 -1.65625,-4.3125 -8.6875,3.34375 -0.9375,-1.625 -5.28125,3.0625 -1.40625,0.0312 -0.8125,0.0312 -0.21875,-0.25 -2.625,-8.5625 -4.09375,1.21875 -3.21875,-3.5 -3.25,2.96875 -0.59375,0.5625 -3.90625,-0.71875 -5.03125,1.71875 -5.15625,1.84375 -2.375,0.78125 -2.84375,-6.96875 -4.09375,1.65625 -6.125,2.5 -3.4375,5.625 -3.3125,5.46875 -2.0625,3.34375 -0.15625,0.90625 -3.71875,0.25 -2.375,-3.625 -6.0625,-2.3125 -4.625,-1.75 -2.3125,6.0625 -0.65625,-0.5 -4.03125,-3.125 -4.625,-3.59375 -5.84375,-0.53125 -4.09375,-0.375 -1.03125,11.28125 -0.75,0.75 -2.75,2.6875 -0.375,-0.46875 -1.46875,-3.1875 -0.8125,0.375 -3.1875,-3.90625 -2.375,-6.34375 -2.15625,0.78125 -3.09375,-3.78125 -3.59375,2.9375 -4.5,3.6875 -1.84375,5.53125 -0.0937,0.25 -4.46875,-5.03125 -3.40625,3.03125 -3.21875,2.84375 -4.4375,-4.375 -3.8125,-9 -3.71875,1.5625 -3.03125,-3 -2.84375,2.875 -3.75,3.8125 0.0625,-0.28125 -0.59375,-4 -0.625,-4.1875 -7.125,1.0625 2.09375,-7.65625 -3.875,-1.0625 -3.9375,-1.0625 -1.34375,0.1875 -2.3125,-3.59375 -3.8125,-5.9375 -6.6875,-2.25 -4.25,-1.40625 -2.6875,8.0625 -2.5,-2.78125 -4.6875,-5.25 -6.96875,-1.15625 -4.09375,-0.65625 z"
       style="font-size:medium;font-style:normal;font-variant:normal;font-weight:normal;font-stretch:normal;text-indent:0;text-align:start;text-decoration:none;line-height:normal;letter-spacing:normal;word-spacing:normal;text-transform:none;direction:ltr;block-progression:tb;writing-mode:lr-tb;text-anchor:start;baseline-shift:baseline;color:#000000;fill:#008d00;fill-opacity:1;stroke:none;stroke-width:40;marker:none;visibility:visible;display:inline;overflow:visible;enable-background:accumulate;font-family:Sans;-inkscape-font-specification:Sans" />
    <path
       inkscape:connector-curvature="0"
       id="path30405"
       d="m 419.27131,341.63524 -1.07936,6.94251 -0.64762,0.39113 -0.15419,0.0977 -3.85484,-2.90086 -2.37459,3.55274 -2.22039,3.29199 -2.15871,-0.16297 -3.79316,1.40154 -4.10156,1.49932 2.74465,8.40924 -9.40581,1.01042 0.52425,5.44319 -7.52465,2.57492 1.26439,4.10684 1.01768,3.32458 -0.43174,0.48891 -2.99136,3.32458 -1.94285,0.65188 -4.2249,1.43414 0.77097,2.54233 -2.74465,0.94522 0.0308,0.13038 -3.51562,0.91263 -4.00904,1.0756 1.04852,4.46537 -0.67845,0.68447 -3.63897,3.52015 3.39226,3.91128 -0.21587,0.19556 0.33923,0.45632 -0.98684,1.82526 -3.48478,6.32322 1.01768,7.23586 0.58593,4.13944 8.32646,-1.30376 -1.97367,7.88773 3.54645,1.01042 -0.70929,0.94522 2.43626,2.08602 -0.24671,0.0325 -10.2693,-4.62834 -1.66529,4.07424 -2.22039,5.47579 0.86348,5.8995 0.89432,6.29064 1.01768,7.0077 1.54194,1.53191 -0.30838,0.35854 -4.40995,5.11725 -0.64761,6.84473 -0.52426,5.80172 -0.70929,7.36624 3.85484,6.19285 2.2204,3.58533 2.77548,-1.92304 0.21587,1.23857 9.03575,-1.69488 0.61678,1.85785 1.11019,-0.42372 0.40091,1.76007 5.42761,-1.43413 1.17187,-0.32594 0.83265,8.27886 4.19407,-0.45631 2.4671,4.23721 1.54194,-1.01041 2.15871,3.58534 6.8462,2.28157 5.52013,1.82526 3.48478,1.14079 1.35691,4.17203 2.43626,-0.88004 3.42309,7.92033 4.71834,-2.28157 3.70064,-1.72748 2.71381,-3.19421 4.22491,-4.88909 3.85484,-4.49797 0.30839,-1.89045 2.43626,-0.45631 4.03988,3.32458 -0.12336,-5.67135 0.46259,0.16297 1.14103,0.61929 -0.0616,-0.26076 0.27755,0.0977 0.18503,-0.58669 1.85032,2.37936 0.52426,1.30376 1.38774,3.45496 1.14104,1.23857 1.85032,7.5292 4.19408,-1.14079 5.42761,-1.49932 2.99136,3.2268 6.2911,1.17339 4.81084,0.88003 1.1102,-6.64916 0.74013,0.39112 4.50245,2.37936 5.15007,2.77049 5.76685,-0.58669 4.00904,-0.42372 -1.07935,-11.76642 0.58593,-0.91263 2.15871,-3.29199 0.43175,0.39113 2.03535,2.99864 0.70929,-0.5541 3.824,3.35718 3.48478,6.02988 1.94284,-1.20597 3.70065,3.25939 2.92969,-3.71571 3.6698,-4.66094 0.77097,-6.02988 0.0308,-0.26075 5.27342,4.26981 2.74465,-3.7809 2.59046,-3.55274 5.11923,3.61793 5.36594,8.44183 3.29974,-2.31417 3.51563,2.47714 2.22038,-3.52015 2.89884,-4.62834 0,0.29335 1.32607,3.97646 1.38775,4.17203 6.692,-2.50974 -0.58594,8.27887 3.94736,0.32594 4.00904,0.29334 1.26439,-0.45631 2.92967,3.2268 4.78001,5.34541 6.90788,0.97782 4.3791,0.61928 0.49342,-3.81349 1.97368,4.36759 4.00904,3.09643 3.91652,2.99864 6.10607,-8.83296 0.0308,0 4.10155,-0.13038 -0.0925,-3.42236 0.70929,0.26075 0.55509,0.22816 0.0924,0.13037 0.0925,-0.0652 3.76232,1.43414 4.25575,-0.58669 0.83265,0.45631 0.27755,-0.61928 3.73148,-0.48891 -0.15419,-1.23857 2.43626,0.32594 0.5551,-4.79132 0.70928,-6.06247 -1.29522,-2.86827 1.01768,-0.61928 -0.77097,-1.40155 2.59046,-3.7483 -0.18503,-4.43278 3.23806,-1.01041 -1.48026,-5.21503 6.90788,-4.04165 -1.97368,-3.7809 -1.57278,-3.06384 0.30839,-0.55409 2.34374,-3.87868 1.78865,-1.01042 3.91653,-2.28157 -1.75782,-3.38978 1.6653,0.13038 4.62581,-2.24898 3.76232,-1.85786 -1.85032,-4.20462 0.5551,-0.78225 2.96051,-4.20462 -4.03987,-3.16162 0.18503,-0.22816 -0.43174,-0.39112 0.21587,-0.65188 2.4671,-1.95564 1.85033,-6.61657 1.57277,-5.57357 2.00452,-7.10548 -2.68297,-6.84473 -1.54194,-3.97647 -5.70516,2.50974 1.07935,-5.378 -1.88116,-5.60617 -2.00452,-5.99728 -2.25123,-6.68177 -5.64349,-3.84608 -5.27342,-3.61793 1.14103,-4.07425 1.48026,-5.21503 1.94284,-6.81214 -2.40542,-6.61657 -1.63445,-4.49797 -8.57318,3.48756 -0.92515,-1.69489 -5.21176,3.19421 -1.38774,0.0325 -0.80181,0.0325 -0.21587,-0.26075 -2.59045,-8.93074 -4.03988,1.27116 -3.17639,-3.65052 -3.20722,3.09642 -0.58594,0.5867 -3.85484,-0.74967 -4.96504,1.79267 -5.08839,1.92305 -2.34375,0.81484 -2.80632,-7.26845 -4.03988,1.72748 -6.04439,2.60752 -3.39226,5.86691 -3.26891,5.70394 -2.03535,3.48756 -0.1542,0.94522 -3.66981,0.26075 -2.34374,-3.7809 -5.98272,-2.41195 -4.56414,-1.82526 -2.28207,6.32323 -0.6476,-0.52151 -3.9782,-3.25939 -4.56414,-3.74831 -5.76684,-0.55409 -4.03988,-0.39113 -1.01768,11.76642 -0.74012,0.78225 -2.71382,2.80308 -0.37006,-0.48891 -1.44942,-3.32458 -0.8018,0.39113 -3.14556,-4.07425 -2.34374,-6.61657 -2.12787,0.81485 -3.05305,-3.94387 -3.54645,3.06383 -4.44078,3.84609 -1.81949,5.76913 -0.0925,0.26075 -4.40994,-5.24763 -3.36142,3.16162 -3.17639,2.96605 -4.3791,-4.56316 -3.76233,-9.38706 -3.66981,1.6297 -2.99136,-3.12902 -2.80632,2.99865 -3.70065,3.97646 0.0616,-0.29335 -0.58593,-4.17202 -0.61677,-4.36759 -7.03124,1.10819 2.0662,-7.98552 -3.82401,-1.10819 -3.88568,-1.1082 -1.32606,0.19557 -2.28207,-3.74831 -3.76232,-6.19285 -6.5995,-2.34677 -4.19406,-1.46672 -2.65213,8.40924 -2.46711,-2.90087 -4.62581,-5.47578 -6.87703,-1.20598 -4.03989,-0.68447 z"
       style="font-size:medium;font-style:normal;font-variant:normal;font-weight:normal;font-stretch:normal;text-indent:0;text-align:start;text-decoration:none;line-height:normal;letter-spacing:normal;word-spacing:normal;text-transform:none;direction:ltr;block-progression:tb;writing-mode:lr-tb;text-anchor:start;baseline-shift:baseline;color:#000000;fill:#007600;fill-opacity:1;stroke:none;stroke-width:40;marker:none;visibility:visible;display:inline;overflow:visible;enable-background:accumulate;font-family:Sans;-inkscape-font-specification:Sans" />
    <path
       style="font-size:medium;font-style:normal;font-variant:normal;font-weight:normal;font-stretch:normal;text-indent:0;text-align:start;text-decoration:none;line-height:normal;letter-spacing:normal;word-spacing:normal;text-transform:none;direction:ltr;block-progression:tb;writing-mode:lr-tb;text-anchor:start;baseline-shift:baseline;color:#000000;fill:#784421;fill-opacity:1;stroke:none;stroke-width:40;marker:none;visibility:visible;display:inline;overflow:visible;enable-background:accumulate;font-family:Sans;-inkscape-font-specification:Sans"
       d="m 548.12411,496.86636 -36.4375,-17.5625 0.125,0.75 -4.4375,10.25 -5.875,-7.40625 -0.59375,-1.9375 -38.125,25.4375 8.59375,2.9375 21.21875,26.5 0,72.96875 40,0 0,-75.9375 15.53125,-36 z"
       id="path30407"
       inkscape:connector-curvature="0" />
    <path
       inkscape:connector-curvature="0"
       id="path30409"
       d="m 730.17666,206.94255 -36.4375,-17.5625 0.125,0.75 -4.4375,10.25 -5.875,-7.40625 -0.59375,-1.9375 -38.125,25.4375 8.59375,2.9375 21.21875,26.5 0,72.96875 40,0 0,-75.9375 15.53125,-36 z"
       style="font-size:medium;font-style:normal;font-variant:normal;font-weight:normal;font-stretch:normal;text-indent:0;text-align:start;text-decoration:none;line-height:normal;letter-spacing:normal;word-spacing:normal;text-transform:none;direction:ltr;block-progression:tb;writing-mode:lr-tb;text-anchor:start;baseline-shift:baseline;color:#000000;fill:#502d16;fill-opacity:1;stroke:none;stroke-width:40;marker:none;visibility:visible;display:inline;overflow:visible;enable-background:accumulate;font-family:Sans;-inkscape-font-specification:Sans"
       clip-path="url(#clipPath28933-7)"
       transform="translate(-177.54746,295.94412)" />
    <path
       style="font-size:medium;font-style:normal;font-variant:normal;font-weight:normal;font-stretch:normal;text-indent:0;text-align:start;text-decoration:none;line-height:normal;letter-spacing:normal;word-spacing:normal;text-transform:none;direction:ltr;block-progression:tb;writing-mode:lr-tb;text-anchor:start;baseline-shift:baseline;color:#000000;fill:#008d00;fill-opacity:1;stroke:none;stroke-width:40;marker:none;visibility:visible;display:inline;overflow:visible;enable-background:accumulate;font-family:Sans;-inkscape-font-specification:Sans"
       d="m 420.05146,341.71645 -1.09375,6.65625 -0.65625,0.375 -0.15625,0.0937 -3.90625,-2.78125 -2.40625,3.40625 -2.25,3.15625 -2.1875,-0.15625 -3.84375,1.34375 -4.15625,1.4375 2.78125,8.0625 -9.53125,0.96875 0.53125,5.21875 -7.625,2.46875 1.28125,3.9375 1.03125,3.1875 -0.4375,0.46875 -3.03125,3.1875 -1.96875,0.625 -4.28125,1.375 0.78125,2.4375 -2.78125,0.90625 0.0312,0.125 -3.5625,0.875 -4.0625,1.03125 1.0625,4.28125 -0.6875,0.65625 -3.6875,3.375 3.4375,3.75 -0.21875,0.1875 0.34375,0.4375 -1,1.75 -3.53125,6.0625 1.03125,6.9375 0.59375,3.96875 8.4375,-1.25 -2,7.5625 3.59375,0.96875 -0.71875,0.90625 2.46875,2 -0.25,0.0312 -10.40625,-4.4375 -1.6875,3.90625 -2.25,5.25 0.875,5.65625 0.90625,6.03125 1.03125,6.71875 1.5625,1.46875 -0.3125,0.34375 -4.46875,4.90625 -0.65625,6.5625 -0.53125,5.5625 -0.71875,7.0625 3.90625,5.9375 2.25,3.4375 2.8125,-1.84375 0.21875,1.1875 9.15625,-1.625 0.625,1.78125 1.125,-0.40625 0.40625,1.6875 5.5,-1.375 1.1875,-0.3125 0.84375,7.9375 4.25,-0.4375 2.5,4.0625 1.5625,-0.96875 2.1875,3.4375 6.9375,2.1875 5.59375,1.75 3.53125,1.09375 1.375,4 2.46875,-0.84375 3.46875,7.59375 4.78125,-2.1875 3.75,-1.65625 2.75,-3.0625 4.28125,-4.6875 3.90625,-4.3125 0.3125,-1.8125 2.46875,-0.4375 4.09375,3.1875 -0.125,-5.4375 0.46875,0.15625 1.15625,0.59375 -0.0625,-0.25 0.28125,0.0937 0.1875,-0.5625 1.875,2.28125 0.53125,1.25 1.40625,3.3125 1.15625,1.1875 1.875,7.21875 4.25,-1.09375 5.5,-1.4375 3.03125,3.09375 6.375,1.125 4.875,0.84375 1.125,-6.375 0.75,0.375 4.5625,2.28125 5.21875,2.65625 5.84375,-0.5625 4.0625,-0.40625 -1.09375,-11.28125 0.59375,-0.875 2.1875,-3.15625 0.4375,0.375 2.0625,2.875 0.71875,-0.53125 3.875,3.21875 3.53125,5.78125 1.96875,-1.15625 3.75,3.125 2.96875,-3.5625 3.71875,-4.46875 0.78125,-5.78125 0.0312,-0.25 5.34375,4.09375 2.78125,-3.625 2.625,-3.40625 5.1875,3.46875 5.4375,8.09375 3.34375,-2.21875 3.5625,2.375 2.25,-3.375 2.9375,-4.4375 0,0.28125 1.34375,3.8125 1.40625,4 6.78125,-2.40625 -0.59375,7.9375 4,0.3125 4.0625,0.28125 1.28125,-0.4375 2.96875,3.09375 4.84375,5.125 7,0.9375 4.4375,0.59375 0.5,-3.65625 2,4.1875 4.0625,2.96875 3.96875,2.875 6.1875,-8.46875 0.0312,0 4.15625,-0.125 -0.0937,-3.28125 0.71875,0.25 0.5625,0.21875 0.0937,0.125 0.0937,-0.0625 3.8125,1.375 4.3125,-0.5625 0.84375,0.4375 0.28125,-0.59375 3.78125,-0.46875 -0.15625,-1.1875 2.46875,0.3125 0.5625,-4.59375 0.71875,-5.8125 -1.3125,-2.75 1.03125,-0.59375 -0.78125,-1.34375 2.625,-3.59375 -0.1875,-4.25 3.28125,-0.96875 -1.5,-5 7,-3.875 -2,-3.625 -1.59375,-2.9375 0.3125,-0.53125 2.375,-3.71875 1.8125,-0.96875 3.96875,-2.1875 -1.78125,-3.25 1.6875,0.125 4.6875,-2.15625 3.8125,-1.78125 -1.875,-4.03125 0.5625,-0.75 3,-4.03125 -4.09375,-3.03125 0.1875,-0.21875 -0.4375,-0.375 0.21875,-0.625 2.5,-1.875 1.875,-6.34375 1.59375,-5.34375 2.03125,-6.8125 -2.71875,-6.5625 -1.5625,-3.8125 -5.78125,2.40625 1.09375,-5.15625 -1.90625,-5.375 -2.03125,-5.75 -2.28125,-6.40625 -5.71875,-3.6875 -5.34375,-3.46875 1.15625,-3.90625 1.5,-5 1.96875,-6.53125 -2.4375,-6.34375 -1.65625,-4.3125 -8.6875,3.34375 -0.9375,-1.625 -5.28125,3.0625 -1.40625,0.0312 -0.8125,0.0312 -0.21875,-0.25 -2.625,-8.5625 -4.09375,1.21875 -3.21875,-3.5 -3.25,2.96875 -0.59375,0.5625 -3.90625,-0.71875 -5.03125,1.71875 -5.15625,1.84375 -2.375,0.78125 -2.84375,-6.96875 -4.09375,1.65625 -6.125,2.5 -3.4375,5.625 -3.3125,5.46875 -2.0625,3.34375 -0.15625,0.90625 -3.71875,0.25 -2.375,-3.625 -6.0625,-2.3125 -4.625,-1.75 -2.3125,6.0625 -0.65625,-0.5 -4.03125,-3.125 -4.625,-3.59375 -5.84375,-0.53125 -4.09375,-0.375 -1.03125,11.28125 -0.75,0.75 -2.75,2.6875 -0.375,-0.46875 -1.46875,-3.1875 -0.8125,0.375 -3.1875,-3.90625 -2.375,-6.34375 -2.15625,0.78125 -3.09375,-3.78125 -3.59375,2.9375 -4.5,3.6875 -1.84375,5.53125 -0.0937,0.25 -4.46875,-5.03125 -3.40625,3.03125 -3.21875,2.84375 -4.4375,-4.375 -3.8125,-9 -3.71875,1.5625 -3.03125,-3 -2.84375,2.875 -3.75,3.8125 0.0625,-0.28125 -0.59375,-4 -0.625,-4.1875 -7.125,1.0625 2.09375,-7.65625 -3.875,-1.0625 -3.9375,-1.0625 -1.34375,0.1875 -2.3125,-3.59375 -3.8125,-5.9375 -6.6875,-2.25 -4.25,-1.40625 -2.6875,8.0625 -2.5,-2.78125 -4.6875,-5.25 -6.96875,-1.15625 -4.09375,-0.65625 z"
       id="path30411"
       inkscape:connector-curvature="0" />
    <path
       style="fill:#000000;fill-opacity:1;fill-rule:nonzero;stroke:none"
       d="m 434.70479,804.01443 c 17.59286,9.76026 -16.51361,-5.22799 -37.31931,-7.29301 -20.80569,-2.06501 -56.02495,8.80191 -38.02479,-0.18506 17.66715,-8.8207 30.72972,-6.71254 39.6428,-5.88932 9.19425,0.84924 7.14145,-2.47721 35.7013,13.36739 z"
       id="path3006"
       inkscape:connector-curvature="0"
       sodipodi:nodetypes="sssss"
       inkscape:transform-center-x="42.460469"
       inkscape:transform-center-y="-9.9385562"
       inkscape:export-filename="/home/rsimoni/Development/projects/sixro/pooomodoro/assets-sources/bird01.png"
       inkscape:export-xdpi="90"
       inkscape:export-ydpi="90" />
    <path
       sodipodi:nodetypes="sssss"
       inkscape:connector-curvature="0"
       id="path3777"
       d="m 441.47465,803.95689 c -17.47256,9.97404 16.44864,-5.42894 37.22761,-7.74746 20.77897,-2.31853 56.12811,8.11818 38.01971,-0.64866 -17.77338,-8.60464 -30.80927,-6.33738 -39.71166,-5.40555 -9.18321,0.96128 -7.17111,-2.38996 -35.53566,13.80167 z"
       style="fill:#000000;fill-opacity:1;fill-rule:nonzero;stroke:none"
       inkscape:transform-center-x="-42.396014"
       inkscape:transform-center-y="-10.261778"
       inkscape:export-filename="/home/rsimoni/Development/projects/sixro/pooomodoro/assets-sources/bird01.png"
       inkscape:export-xdpi="90"
       inkscape:export-ydpi="90" />
    <path
       inkscape:transform-center-y="-6.9690872"
       inkscape:transform-center-x="42.751133"
       sodipodi:nodetypes="sssss"
       inkscape:connector-curvature="0"
       id="path3779"
       d="m 434.27919,857.8906 c 18.48385,7.94474 -16.95504,-3.54371 -37.86294,-3.50954 -20.90788,0.0342 -54.85824,14.38199 -37.85126,3.63332 16.69235,-10.5498 29.90058,-9.76369 38.85127,-9.83945 9.23306,-0.0781 6.85667,-3.18165 36.86293,9.71567 z"
       style="fill:#000000;fill-opacity:1;fill-rule:nonzero;stroke:none"
       inkscape:export-filename="/home/rsimoni/Development/projects/sixro/pooomodoro/assets-sources/bird02.png"
       inkscape:export-xdpi="90"
       inkscape:export-ydpi="90" />
    <path
       inkscape:transform-center-y="-7.6916446"
       inkscape:transform-center-x="-42.739007"
       style="fill:#000000;fill-opacity:1;fill-rule:nonzero;stroke:none"
       d="m 441.90684,857.82852 c -18.3867,8.16707 16.91107,-3.74792 37.81785,-3.96587 20.90679,-0.21795 55.0277,13.7194 37.89233,3.1766 -16.81836,-10.34774 -30.01613,-9.40241 -38.9671,-9.37023 -9.23333,0.0333 -6.89453,-3.09873 -36.74308,10.1595 z"
       id="path3781"
       inkscape:connector-curvature="0"
       sodipodi:nodetypes="sssss"
       inkscape:export-filename="/home/rsimoni/Development/projects/sixro/pooomodoro/assets-sources/bird02.png"
       inkscape:export-xdpi="90"
       inkscape:export-ydpi="90" />
    <path
       style="fill:#000000;fill-opacity:1;fill-rule:nonzero;stroke:none"
       d="m 434.4228,909.64434 c 19.16713,6.11496 -17.21877,-1.88291 -38.02482,0.17851 -20.80604,2.06144 -53.20513,19.63372 -37.32057,7.28657 15.59069,-12.11872 28.8129,-12.61709 37.71407,-13.56043 9.18197,-0.97304 6.51583,-3.83153 37.63132,6.09535 z"
       id="path3783"
       inkscape:connector-curvature="0"
       sodipodi:nodetypes="sssss"
       inkscape:transform-center-x="42.622692"
       inkscape:transform-center-y="-1.1612685"
       inkscape:export-filename="/home/rsimoni/Development/projects/sixro/pooomodoro/assets-sources/bird03.png"
       inkscape:export-xdpi="90"
       inkscape:export-ydpi="90" />
    <path
       sodipodi:nodetypes="sssss"
       inkscape:connector-curvature="0"
       id="path3785"
       d="m 442.81285,909.63015 c -19.15137,6.16413 17.21388,-1.9271 38.02515,0.0809 20.81127,2.00802 53.25535,19.49711 37.33915,7.19076 -15.62175,-12.07866 -28.84517,-12.5431 -37.74875,-13.46359 -9.18444,-0.94942 -6.52564,-3.81479 -37.61555,6.19192 z"
       style="fill:#000000;fill-opacity:1;fill-rule:nonzero;stroke:none"
       inkscape:transform-center-x="-42.631251"
       inkscape:transform-center-y="-1.3142007"
       inkscape:export-filename="/home/rsimoni/Development/projects/sixro/pooomodoro/assets-sources/bird03.png"
       inkscape:export-xdpi="90"
       inkscape:export-ydpi="90" />
  </g>
</svg>
